<svg xmlns="http://www.w3.org/2000/svg" viewBox="0 0 1880 852" width="1880" height="852" role="img" aria-label="High-level architecture: sources, privacy boundary, live lane and post-call lane over a shared AI foundation">
<defs>
  <filter id="sh" x="-14%" y="-24%" width="128%" height="150%">
    <feDropShadow dx="0" dy="1.6" stdDeviation="2.6" flood-color="#0d2242"
                  flood-opacity="0.10"/></filter>
  <filter id="ic" x="-24%" y="-24%" width="148%" height="148%">
    <feDropShadow dx="0" dy="1.4" stdDeviation="1.8" flood-color="#0d2242"
                  flood-opacity="0.22"/></filter>
  <marker id="aN" viewBox="0 0 10 10" refX="8.6" refY="5" markerWidth="6.4" markerHeight="6.4" orient="auto-start-reverse"><path d="M 0 1.6 L 9 5 L 0 8.4 z" fill="#8fa0b3"/></marker><marker id="aO" viewBox="0 0 10 10" refX="8.6" refY="5" markerWidth="6.4" markerHeight="6.4" orient="auto-start-reverse"><path d="M 0 1.6 L 9 5 L 0 8.4 z" fill="#e8791a"/></marker><marker id="aG" viewBox="0 0 10 10" refX="8.6" refY="5" markerWidth="6.4" markerHeight="6.4" orient="auto-start-reverse"><path d="M 0 1.6 L 9 5 L 0 8.4 z" fill="#1c7a4b"/></marker><marker id="aR" viewBox="0 0 10 10" refX="8.6" refY="5" markerWidth="6.4" markerHeight="6.4" orient="auto-start-reverse"><path d="M 0 1.6 L 9 5 L 0 8.4 z" fill="#d92b2b"/></marker>
</defs>
<rect width="100%" height="100%" fill="#ffffff"/>
<rect x="24.0" y="122.0" width="270.0" height="104.0" rx="12" fill="#ffffff" stroke="#143a6b" stroke-width="1.6" filter="url(#sh)"/>
<rect x="42.0" y="152.0" width="44.0" height="44.0" rx="9" fill="#143a6b" filter="url(#ic)"/>
<g transform="translate(47.0,157.0) scale(1.417)" fill="#ffffff" stroke="#ffffff" stroke-linejoin="round" stroke-linecap="round" color="#143a6b"><path d="M7 3h4l2 5-2.5 1.5a12 12 0 0 0 4 4L16 11l5 2v4a2 2 0 0 1-2 2A16 16 0 0 1 5 5a2 2 0 0 1 2-2z"/></g>
<text x="102.0" y="162.0" font-family="'Segoe UI','Inter',-apple-system,'Helvetica Neue',Arial,sans-serif" font-size="15" fill="#143a6b" font-weight="600" text-anchor="start" letter-spacing="0.02em">LIVE CALLS</text>
<text x="102.0" y="182.0" font-family="'Segoe UI','Inter',-apple-system,'Helvetica Neue',Arial,sans-serif" font-size="12.5" fill="#33414f" font-weight="400" text-anchor="start">Contact-Centre Platform</text>
<rect x="24.0" y="288.0" width="270.0" height="104.0" rx="12" fill="#ffffff" stroke="#143a6b" stroke-width="1.6" filter="url(#sh)"/>
<rect x="42.0" y="318.0" width="44.0" height="44.0" rx="9" fill="#143a6b" filter="url(#ic)"/>
<g transform="translate(47.0,323.0) scale(1.417)" fill="#ffffff" stroke="#ffffff" stroke-linejoin="round" stroke-linecap="round" color="#143a6b"><path d="M3 6.5A1.5 1.5 0 0 1 4.5 5h4l2 2.5h9A1.5 1.5 0 0 1 21 9v9.5A1.5 1.5 0 0 1 19.5 20h-15A1.5 1.5 0 0 1 3 18.5z"/></g>
<text x="102.0" y="328.0" font-family="'Segoe UI','Inter',-apple-system,'Helvetica Neue',Arial,sans-serif" font-size="15" fill="#143a6b" font-weight="600" text-anchor="start" letter-spacing="0.02em">RECORDED CALLS</text>
<text x="102.0" y="348.0" font-family="'Segoe UI','Inter',-apple-system,'Helvetica Neue',Arial,sans-serif" font-size="12.5" fill="#33414f" font-weight="400" text-anchor="start">Recording Archive +</text>
<text x="102.0" y="365.0" font-family="'Segoe UI','Inter',-apple-system,'Helvetica Neue',Arial,sans-serif" font-size="12.5" fill="#33414f" font-weight="400" text-anchor="start">Existing Transcripts</text>
<rect x="24.0" y="454.0" width="270.0" height="104.0" rx="12" fill="#ffffff" stroke="#143a6b" stroke-width="1.6" stroke-dasharray="7 5" filter="url(#sh)"/>
<rect x="42.0" y="484.0" width="44.0" height="44.0" rx="9" fill="#143a6b" filter="url(#ic)"/>
<g transform="translate(47.0,489.0) scale(1.417)" fill="#ffffff" stroke="#ffffff" stroke-linejoin="round" stroke-linecap="round" color="#143a6b"><path d="M4 5h16a1 1 0 0 1 1 1v9a1 1 0 0 1-1 1h-8l-5 4v-4H4a1 1 0 0 1-1-1V6a1 1 0 0 1 1-1z"/></g>
<text x="102.0" y="494.0" font-family="'Segoe UI','Inter',-apple-system,'Helvetica Neue',Arial,sans-serif" font-size="15" fill="#143a6b" font-weight="600" text-anchor="start" letter-spacing="0.02em">EMAIL · CHAT</text>
<text x="102.0" y="514.0" font-family="'Segoe UI','Inter',-apple-system,'Helvetica Neue',Arial,sans-serif" font-size="12.5" fill="#33414f" font-weight="400" text-anchor="start">Already Text — Joins at</text>
<text x="102.0" y="531.0" font-family="'Segoe UI','Inter',-apple-system,'Helvetica Neue',Arial,sans-serif" font-size="12.5" fill="#33414f" font-weight="400" text-anchor="start">Redaction, Not Built Yet</text>
<rect x="326.0" y="138.0" width="220.0" height="404.0" rx="12" fill="#ffffff" stroke="#143a6b" stroke-width="1.6" filter="url(#sh)"/>
<rect x="346.0" y="160.0" width="44.0" height="44.0" rx="9" fill="#143a6b" filter="url(#ic)"/>
<g transform="translate(351.0,165.0) scale(1.417)" fill="#ffffff" stroke="#ffffff" stroke-linejoin="round" stroke-linecap="round" color="#143a6b"><g stroke-linecap="round" stroke-width="2"><path d="M4 10v4M8 6v12M12 3v18M16 7v10M20 10v4"/></g></g>
<text x="404.0" y="180.0" font-family="'Segoe UI','Inter',-apple-system,'Helvetica Neue',Arial,sans-serif" font-size="15" fill="#143a6b" font-weight="600" text-anchor="start" letter-spacing="0.02em">LISTEN &amp; CONVERT</text>
<text x="404.0" y="199.0" font-family="'Segoe UI','Inter',-apple-system,'Helvetica Neue',Arial,sans-serif" font-size="15" fill="#143a6b" font-weight="600" text-anchor="start" letter-spacing="0.02em">TO TEXT</text>
<text x="348.0" y="244.0" font-family="'Segoe UI','Inter',-apple-system,'Helvetica Neue',Arial,sans-serif" font-size="12.5" fill="#33414f" font-weight="400" text-anchor="start">Streaming Speech-to-</text>
<text x="348.0" y="262.0" font-family="'Segoe UI','Inter',-apple-system,'Helvetica Neue',Arial,sans-serif" font-size="12.5" fill="#33414f" font-weight="400" text-anchor="start">Text with Speaker</text>
<text x="348.0" y="280.0" font-family="'Segoe UI','Inter',-apple-system,'Helvetica Neue',Arial,sans-serif" font-size="12.5" fill="#33414f" font-weight="400" text-anchor="start">Separation</text>
<text x="348.0" y="316.0" font-family="'Segoe UI','Inter',-apple-system,'Helvetica Neue',Arial,sans-serif" font-size="12.5" fill="#33414f" font-weight="400" text-anchor="start">Member | Agent Kept</text>
<text x="348.0" y="334.0" font-family="'Segoe UI','Inter',-apple-system,'Helvetica Neue',Arial,sans-serif" font-size="12.5" fill="#33414f" font-weight="400" text-anchor="start">as Separate Voices</text>
<text x="348.0" y="370.0" font-family="'Segoe UI','Inter',-apple-system,'Helvetica Neue',Arial,sans-serif" font-size="12.5" fill="#33414f" font-weight="400" text-anchor="start">Numbers, Dates and</text>
<text x="348.0" y="388.0" font-family="'Segoe UI','Inter',-apple-system,'Helvetica Neue',Arial,sans-serif" font-size="12.5" fill="#33414f" font-weight="400" text-anchor="start">Plan Codes Normalised</text>
<text x="574.0" y="36.0" font-family="'Segoe UI','Inter',-apple-system,'Helvetica Neue',Arial,sans-serif" font-size="16" fill="#d92b2b" font-weight="600" text-anchor="middle" letter-spacing="0.06em">PRIVACY BOUNDARY</text>
<text x="574.0" y="60.0" font-family="'Segoe UI','Inter',-apple-system,'Helvetica Neue',Arial,sans-serif" font-size="13" fill="#d92b2b" font-weight="400" text-anchor="middle">No Unredacted Text Crosses This Line</text>
<rect x="594.0" y="244.0" width="128.0" height="192.0" rx="12" fill="#ffffff" stroke="#d92b2b" stroke-width="1.7" filter="url(#sh)"/>
<rect x="634.0" y="264.0" width="48.0" height="48.0" rx="11" fill="#d92b2b" filter="url(#ic)"/>
<g transform="translate(639.0,269.0) scale(1.583)" fill="#ffffff" stroke="#ffffff" stroke-linejoin="round" stroke-linecap="round" color="#d92b2b"><path d="M12 2.5 20.5 6v6.5c0 5-3.7 8.8-8.5 10-4.8-1.2-8.5-5-8.5-10V6z" fill="none" stroke-width="2"/><rect x="9" y="10.5" width="6" height="5" rx="1" fill="currentColor" stroke="none"/><path d="M10.2 10.5V9a1.8 1.8 0 0 1 3.6 0v1.5" fill="none" stroke-width="1.6"/></g>
<text x="658.0" y="342.0" font-family="'Segoe UI','Inter',-apple-system,'Helvetica Neue',Arial,sans-serif" font-size="15.5" fill="#d92b2b" font-weight="600" text-anchor="middle" letter-spacing="0.03em">REDACT</text>
<text x="658.0" y="370.0" font-family="'Segoe UI','Inter',-apple-system,'Helvetica Neue',Arial,sans-serif" font-size="12.5" fill="#33414f" font-weight="400" text-anchor="middle">Personal Details</text>
<text x="658.0" y="388.0" font-family="'Segoe UI','Inter',-apple-system,'Helvetica Neue',Arial,sans-serif" font-size="12.5" fill="#33414f" font-weight="400" text-anchor="middle">Masked Before</text>
<text x="658.0" y="406.0" font-family="'Segoe UI','Inter',-apple-system,'Helvetica Neue',Arial,sans-serif" font-size="12.5" fill="#33414f" font-weight="400" text-anchor="middle">Any Model Call</text>
<rect x="742.0" y="20.0" width="880.0" height="239.0" rx="16" fill="#fdf7f0" stroke="#f3d0aa" stroke-width="1.5"/>
<text x="768.0" y="60.0" font-family="'Segoe UI','Inter',-apple-system,'Helvetica Neue',Arial,sans-serif" font-size="17" fill="#b45c0c" font-weight="600" text-anchor="start" letter-spacing="0.06em">DURING THE CALL</text>
<rect x="764.0" y="92.0" width="262.7" height="139.0" rx="11" fill="#ffffff" stroke="#dfe5ec" stroke-width="1.3" filter="url(#sh)"/>
<rect x="782.0" y="110.0" width="40.0" height="40.0" rx="8" fill="#e8791a" filter="url(#ic)"/>
<g transform="translate(787.0,115.0) scale(1.250)" fill="#ffffff" stroke="#ffffff" stroke-linejoin="round" stroke-linecap="round" color="#e8791a"><path d="M15.5 20.5v-2.2a5.6 5.6 0 0 0 3.4-5.1c0-3.4-2.9-6.2-6.4-6.2S6 9.8 6 13.2a5.6 5.6 0 0 0 1.9 4.2v3.1" fill="none" stroke-width="2"/><path d="M10 12.6c1-.9 2.2-.9 3 0s2 .9 3 0" fill="none" stroke-width="1.8"/><path d="M12.5 7V4M9 5 7.6 3M16 5l1.4-2" fill="none" stroke-width="1.8"/></g>
<text x="834.0" y="128.0" font-family="'Segoe UI','Inter',-apple-system,'Helvetica Neue',Arial,sans-serif" font-size="15" fill="#e8791a" font-weight="600" text-anchor="start" letter-spacing="0.02em">UNDERSTAND</text>
<text x="834.0" y="159.0" font-family="'Segoe UI','Inter',-apple-system,'Helvetica Neue',Arial,sans-serif" font-size="12.5" fill="#33414f" font-weight="400" text-anchor="start">Intent &amp; Topic</text>
<text x="834.0" y="177.0" font-family="'Segoe UI','Inter',-apple-system,'Helvetica Neue',Arial,sans-serif" font-size="12.5" fill="#33414f" font-weight="400" text-anchor="start">Mood Over Time</text>
<text x="834.0" y="195.0" font-family="'Segoe UI','Inter',-apple-system,'Helvetica Neue',Arial,sans-serif" font-size="12.5" fill="#33414f" font-weight="400" text-anchor="start">Risk Signals</text>
<rect x="1050.7" y="92.0" width="262.7" height="139.0" rx="11" fill="#ffffff" stroke="#dfe5ec" stroke-width="1.3" filter="url(#sh)"/>
<rect x="1068.7" y="110.0" width="40.0" height="40.0" rx="8" fill="#e8791a" filter="url(#ic)"/>
<g transform="translate(1073.7,115.0) scale(1.250)" fill="#ffffff" stroke="#ffffff" stroke-linejoin="round" stroke-linecap="round" color="#e8791a"><circle cx="10.5" cy="10.5" r="6.6" fill="none" stroke-width="2"/><path d="m7.8 10.6 2 2 3.4-3.8" fill="none" stroke-width="2"/><path d="m15.4 15.4 4.4 4.4" fill="none" stroke-width="2.2"/></g>
<text x="1120.7" y="128.0" font-family="'Segoe UI','Inter',-apple-system,'Helvetica Neue',Arial,sans-serif" font-size="15" fill="#e8791a" font-weight="600" text-anchor="start" letter-spacing="0.02em">VERIFY</text>
<text x="1120.7" y="159.0" font-family="'Segoe UI','Inter',-apple-system,'Helvetica Neue',Arial,sans-serif" font-size="12.5" fill="#33414f" font-weight="400" text-anchor="start">Retrieve the Approved</text>
<text x="1120.7" y="177.0" font-family="'Segoe UI','Inter',-apple-system,'Helvetica Neue',Arial,sans-serif" font-size="12.5" fill="#33414f" font-weight="400" text-anchor="start">Answer, with Source</text>
<text x="1120.7" y="195.0" font-family="'Segoe UI','Inter',-apple-system,'Helvetica Neue',Arial,sans-serif" font-size="12.5" fill="#33414f" font-weight="400" text-anchor="start">Compliance by Rules,</text>
<text x="1120.7" y="213.0" font-family="'Segoe UI','Inter',-apple-system,'Helvetica Neue',Arial,sans-serif" font-size="12.5" fill="#33414f" font-weight="400" text-anchor="start">Never Guessed</text>
<rect x="1337.3" y="92.0" width="262.7" height="139.0" rx="11" fill="#ffffff" stroke="#dfe5ec" stroke-width="1.3" filter="url(#sh)"/>
<rect x="1355.3" y="110.0" width="40.0" height="40.0" rx="8" fill="#e8791a" filter="url(#ic)"/>
<g transform="translate(1360.3,115.0) scale(1.250)" fill="#ffffff" stroke="#ffffff" stroke-linejoin="round" stroke-linecap="round" color="#e8791a"><rect x="4.5" y="9.5" width="15" height="10.5" rx="2" fill="none" stroke-width="2"/><path d="M8 9.5V7a4 4 0 0 1 8 0v2.5" fill="none" stroke-width="2"/><path d="M12 12.8v3.6M10.2 14.6h3.6" stroke-width="1.9"/></g>
<text x="1407.3" y="128.0" font-family="'Segoe UI','Inter',-apple-system,'Helvetica Neue',Arial,sans-serif" font-size="15" fill="#e8791a" font-weight="600" text-anchor="start" letter-spacing="0.02em">ASSIST</text>
<text x="1407.3" y="159.0" font-family="'Segoe UI','Inter',-apple-system,'Helvetica Neue',Arial,sans-serif" font-size="12.5" fill="#33414f" font-weight="400" text-anchor="start">Guidance Card to</text>
<text x="1407.3" y="177.0" font-family="'Segoe UI','Inter',-apple-system,'Helvetica Neue',Arial,sans-serif" font-size="12.5" fill="#33414f" font-weight="400" text-anchor="start">the Agent's Desktop</text>
<text x="1407.3" y="195.0" font-family="'Segoe UI','Inter',-apple-system,'Helvetica Neue',Arial,sans-serif" font-size="12.5" fill="#33414f" font-weight="400" text-anchor="start">Escalate When Risk</text>
<text x="1407.3" y="213.0" font-family="'Segoe UI','Inter',-apple-system,'Helvetica Neue',Arial,sans-serif" font-size="12.5" fill="#33414f" font-weight="400" text-anchor="start">Crosses a Set Line</text>
<rect x="742.0" y="285.0" width="880.0" height="178.0" rx="16" fill="#f3f6fa" stroke="#c9d7e8" stroke-width="1.5"/>
<text x="768.0" y="325.0" font-family="'Segoe UI','Inter',-apple-system,'Helvetica Neue',Arial,sans-serif" font-size="17" fill="#143a6b" font-weight="600" text-anchor="start" letter-spacing="0.06em">SHARED AI FOUNDATION</text>
<text x="1037.6" y="325.0" font-family="'Segoe UI','Inter',-apple-system,'Helvetica Neue',Arial,sans-serif" font-size="17" fill="#143a6b" font-weight="600" text-anchor="start">·</text>
<text x="1055.6" y="325.0" font-family="'Segoe UI','Inter',-apple-system,'Helvetica Neue',Arial,sans-serif" font-size="15" fill="#143a6b" font-weight="600" text-anchor="start" letter-spacing="0.05em">USED BY BOTH LANES</text>
<rect x="764.0" y="337.0" width="286.0" height="108.0" rx="11" fill="#ffffff" stroke="#dfe5ec" stroke-width="1.3" filter="url(#sh)"/>
<rect x="782.0" y="355.0" width="40.0" height="40.0" rx="8" fill="#143a6b" filter="url(#ic)"/>
<g transform="translate(787.0,360.0) scale(1.250)" fill="#ffffff" stroke="#ffffff" stroke-linejoin="round" stroke-linecap="round" color="#143a6b"><circle cx="12" cy="12" r="2.6" fill="none" stroke-width="2"/><circle cx="4.6" cy="6" r="2.1" fill="none" stroke-width="1.9"/><circle cx="19.4" cy="6" r="2.1" fill="none" stroke-width="1.9"/><circle cx="4.6" cy="18" r="2.1" fill="none" stroke-width="1.9"/><circle cx="19.4" cy="18" r="2.1" fill="none" stroke-width="1.9"/><path d="m6.4 7.4 3.4 3.1M17.6 7.4l-3.4 3.1M6.4 16.6l3.4-3.1M17.6 16.6l-3.4-3.1" stroke-width="1.6"/></g>
<text x="834.0" y="373.0" font-family="'Segoe UI','Inter',-apple-system,'Helvetica Neue',Arial,sans-serif" font-size="15" fill="#143a6b" font-weight="600" text-anchor="start" letter-spacing="0.02em">LLM GATEWAY</text>
<text x="834.0" y="404.0" font-family="'Segoe UI','Inter',-apple-system,'Helvetica Neue',Arial,sans-serif" font-size="12.5" fill="#33414f" font-weight="400" text-anchor="start">One Interface,</text>
<text x="834.0" y="422.0" font-family="'Segoe UI','Inter',-apple-system,'Helvetica Neue',Arial,sans-serif" font-size="12.5" fill="#33414f" font-weight="400" text-anchor="start">Interchangeable Models</text>
<rect x="1070.0" y="337.0" width="530.0" height="108.0" rx="11" fill="#ffffff" stroke="#dfe5ec" stroke-width="1.3" filter="url(#sh)"/>
<rect x="1088.0" y="355.0" width="40.0" height="40.0" rx="8" fill="#143a6b" filter="url(#ic)"/>
<g transform="translate(1093.0,360.0) scale(1.250)" fill="#ffffff" stroke="#ffffff" stroke-linejoin="round" stroke-linecap="round" color="#143a6b"><path d="M12 6.5C10.3 5 7.8 4.4 4 4.6v13.2c3.8-.2 6.3.4 8 1.9 1.7-1.5 4.2-2.1 8-1.9V4.6c-3.8-.2-6.3.4-8 1.9z" fill="none" stroke-width="2"/><path d="M12 6.5v13" stroke-width="1.6"/></g>
<text x="1140.0" y="373.0" font-family="'Segoe UI','Inter',-apple-system,'Helvetica Neue',Arial,sans-serif" font-size="15" fill="#143a6b" font-weight="600" text-anchor="start" letter-spacing="0.02em">KNOWLEDGE BASE  ·  RAG</text>
<text x="1140.0" y="404.0" font-family="'Segoe UI','Inter',-apple-system,'Helvetica Neue',Arial,sans-serif" font-size="12.5" fill="#33414f" font-weight="400" text-anchor="start">Approved Plan Documents, Billing Rules, Procedures —</text>
<text x="1140.0" y="422.0" font-family="'Segoe UI','Inter',-apple-system,'Helvetica Neue',Arial,sans-serif" font-size="12.5" fill="#33414f" font-weight="400" text-anchor="start">Indexed for Retrieval; Only Approved Content Is Usable</text>
<rect x="742.0" y="489.0" width="880.0" height="239.0" rx="16" fill="#f0f8f3" stroke="#bcdcca" stroke-width="1.5"/>
<text x="768.0" y="529.0" font-family="'Segoe UI','Inter',-apple-system,'Helvetica Neue',Arial,sans-serif" font-size="17" fill="#14603a" font-weight="600" text-anchor="start" letter-spacing="0.06em">AFTER THE CALL</text>
<text x="961.6" y="529.0" font-family="'Segoe UI','Inter',-apple-system,'Helvetica Neue',Arial,sans-serif" font-size="17" fill="#14603a" font-weight="600" text-anchor="start">·</text>
<text x="979.6" y="529.0" font-family="'Segoe UI','Inter',-apple-system,'Helvetica Neue',Arial,sans-serif" font-size="15" fill="#14603a" font-weight="600" text-anchor="start" letter-spacing="0.05em">EVERY CALL, AT SCALE</text>
<rect x="764.0" y="561.0" width="262.7" height="139.0" rx="11" fill="#ffffff" stroke="#dfe5ec" stroke-width="1.3" filter="url(#sh)"/>
<rect x="782.0" y="579.0" width="40.0" height="40.0" rx="8" fill="#1c7a4b" filter="url(#ic)"/>
<g transform="translate(787.0,584.0) scale(1.250)" fill="#ffffff" stroke="#ffffff" stroke-linejoin="round" stroke-linecap="round" color="#1c7a4b"><circle cx="10.5" cy="10.5" r="6.6" fill="none" stroke-width="2"/><path d="m7.2 11.4 2-2.6 2 3 2.2-3.4" fill="none" stroke-width="1.8"/><path d="m15.4 15.4 4.4 4.4" fill="none" stroke-width="2.2"/></g>
<text x="834.0" y="597.0" font-family="'Segoe UI','Inter',-apple-system,'Helvetica Neue',Arial,sans-serif" font-size="15" fill="#1c7a4b" font-weight="600" text-anchor="start" letter-spacing="0.02em">ANALYSE  ·  L1–L5</text>
<text x="834.0" y="628.0" font-family="'Segoe UI','Inter',-apple-system,'Helvetica Neue',Arial,sans-serif" font-size="12.5" fill="#33414f" font-weight="400" text-anchor="start">What Happened, How</text>
<text x="834.0" y="646.0" font-family="'Segoe UI','Inter',-apple-system,'Helvetica Neue',Arial,sans-serif" font-size="12.5" fill="#33414f" font-weight="400" text-anchor="start">Well It Was Handled,</text>
<text x="834.0" y="664.0" font-family="'Segoe UI','Inter',-apple-system,'Helvetica Neue',Arial,sans-serif" font-size="12.5" fill="#33414f" font-weight="400" text-anchor="start">Score, Patterns,</text>
<text x="834.0" y="682.0" font-family="'Segoe UI','Inter',-apple-system,'Helvetica Neue',Arial,sans-serif" font-size="12.5" fill="#33414f" font-weight="400" text-anchor="start">Root-Cause Signals</text>
<rect x="1050.7" y="561.0" width="262.7" height="139.0" rx="11" fill="#ffffff" stroke="#dfe5ec" stroke-width="1.3" filter="url(#sh)"/>
<rect x="1068.7" y="579.0" width="40.0" height="40.0" rx="8" fill="#1c7a4b" filter="url(#ic)"/>
<g transform="translate(1073.7,584.0) scale(1.250)" fill="#ffffff" stroke="#ffffff" stroke-linejoin="round" stroke-linecap="round" color="#1c7a4b"><ellipse cx="12" cy="6.2" rx="7.5" ry="2.9" fill="none" stroke-width="2"/><path d="M4.5 6.2v11.6c0 1.6 3.4 2.9 7.5 2.9s7.5-1.3 7.5-2.9V6.2" fill="none" stroke-width="2"/><path d="M4.5 12c0 1.6 3.4 2.9 7.5 2.9s7.5-1.3 7.5-2.9" fill="none" stroke-width="1.6"/></g>
<text x="1120.7" y="597.0" font-family="'Segoe UI','Inter',-apple-system,'Helvetica Neue',Arial,sans-serif" font-size="15" fill="#1c7a4b" font-weight="600" text-anchor="start" letter-spacing="0.02em">INSIGHT STORE</text>
<text x="1120.7" y="628.0" font-family="'Segoe UI','Inter',-apple-system,'Helvetica Neue',Arial,sans-serif" font-size="12.5" fill="#33414f" font-weight="400" text-anchor="start">One Structured Record</text>
<text x="1120.7" y="646.0" font-family="'Segoe UI','Inter',-apple-system,'Helvetica Neue',Arial,sans-serif" font-size="12.5" fill="#33414f" font-weight="400" text-anchor="start">per Call — Queryable,</text>
<text x="1120.7" y="664.0" font-family="'Segoe UI','Inter',-apple-system,'Helvetica Neue',Arial,sans-serif" font-size="12.5" fill="#33414f" font-weight="400" text-anchor="start">Comparable, Auditable</text>
<rect x="1337.3" y="561.0" width="262.7" height="139.0" rx="11" fill="#ffffff" stroke="#dfe5ec" stroke-width="1.3" filter="url(#sh)"/>
<rect x="1355.3" y="579.0" width="40.0" height="40.0" rx="8" fill="#1c7a4b" filter="url(#ic)"/>
<g transform="translate(1360.3,584.0) scale(1.250)" fill="#ffffff" stroke="#ffffff" stroke-linejoin="round" stroke-linecap="round" color="#1c7a4b"><rect x="3.5" y="4" width="17" height="16" rx="2" fill="none" stroke-width="2"/><path d="M7.5 15.5v-3M12 15.5v-6.5M16.5 15.5v-4.5" stroke-width="2" stroke-linecap="round"/></g>
<text x="1407.3" y="591.0" font-family="'Segoe UI','Inter',-apple-system,'Helvetica Neue',Arial,sans-serif" font-size="15" fill="#1c7a4b" font-weight="600" text-anchor="start" letter-spacing="0.02em">DASHBOARDS &amp;</text>
<text x="1407.3" y="610.0" font-family="'Segoe UI','Inter',-apple-system,'Helvetica Neue',Arial,sans-serif" font-size="15" fill="#1c7a4b" font-weight="600" text-anchor="start" letter-spacing="0.02em">ACTIONS</text>
<text x="1407.3" y="639.0" font-family="'Segoe UI','Inter',-apple-system,'Helvetica Neue',Arial,sans-serif" font-size="12.5" fill="#33414f" font-weight="400" text-anchor="start">Overview · Scorecards</text>
<text x="1407.3" y="657.0" font-family="'Segoe UI','Inter',-apple-system,'Helvetica Neue',Arial,sans-serif" font-size="12.5" fill="#33414f" font-weight="400" text-anchor="start">Follow-Up Queue</text>
<text x="1407.3" y="675.0" font-family="'Segoe UI','Inter',-apple-system,'Helvetica Neue',Arial,sans-serif" font-size="12.5" fill="#33414f" font-weight="400" text-anchor="start">Trends · Reports</text>
<rect x="742.0" y="754.0" width="880.0" height="76.0" rx="12" fill="#ffffff" stroke="#143a6b" stroke-width="1.6" filter="url(#sh)"/>
<rect x="762.0" y="770.0" width="44.0" height="44.0" rx="11" fill="#143a6b" filter="url(#ic)"/>
<g transform="translate(767.0,775.0) scale(1.417)" fill="#ffffff" stroke="#ffffff" stroke-linejoin="round" stroke-linecap="round" color="#143a6b"><ellipse cx="10" cy="8.5" rx="6.2" ry="2.5" fill="none" stroke-width="1.9"/><path d="M3.8 8.5v8.2c0 1.4 2.8 2.5 6.2 2.5s6.2-1.1 6.2-2.5V8.5" fill="none" stroke-width="1.9"/><path d="M17.2 6.4a3 3 0 0 1 .3 6h-2.2" fill="none" stroke-width="1.7"/></g>
<text x="820.0" y="799.0" font-family="'Segoe UI','Inter',-apple-system,'Helvetica Neue',Arial,sans-serif" font-size="15.5" fill="#143a6b" font-weight="600" text-anchor="start" letter-spacing="0.03em">DATA PLATFORM</text>
<path d="M 574 78 L 574 746" stroke="#d92b2b" stroke-width="2" stroke-dasharray="9 7" opacity="0.9"/>
<text x="982.0" y="799.0" font-family="'Segoe UI','Inter',-apple-system,'Helvetica Neue',Arial,sans-serif" font-size="12.5" fill="#33414f" font-weight="400" text-anchor="start">Recordings &amp; Transcripts</text>
<text x="1210.8" y="799.0" font-family="'Segoe UI','Inter',-apple-system,'Helvetica Neue',Arial,sans-serif" font-size="12.5" fill="#33414f" font-weight="400" text-anchor="start">Analyses &amp; Events</text>
<text x="1393.6" y="799.0" font-family="'Segoe UI','Inter',-apple-system,'Helvetica Neue',Arial,sans-serif" font-size="12.5" fill="#33414f" font-weight="400" text-anchor="start">Warehouse — One Set of Numbers</text>
<path d="M 294.0 174.0 L 321.0 174.0" fill="none" stroke="#143a6b" stroke-width="2.1" stroke-linecap="round" stroke-linejoin="round" marker-end="url(#aN)"/>
<path d="M 294.0 340.0 L 321.0 340.0" fill="none" stroke="#143a6b" stroke-width="2.1" stroke-linecap="round" stroke-linejoin="round" marker-end="url(#aN)"/>
<path d="M 546.0 340.0 L 589.0 340.0" fill="none" stroke="#143a6b" stroke-width="2.1" stroke-linecap="round" stroke-linejoin="round" marker-end="url(#aN)"/>
<path d="M 294.0 506.0 L 310.0 506.0 L 310.0 574.0 L 658.0 574.0 L 658.0 440.0" fill="none" stroke="#143a6b" stroke-width="2.1" stroke-linecap="round" stroke-linejoin="round" stroke-dasharray="6 5" marker-end="url(#aN)"/>
<path d="M 722.0 300.0 L 730.0 300.0 L 730.0 176.0 L 758.0 176.0" fill="none" stroke="#e8791a" stroke-width="2.4" stroke-linecap="round" stroke-linejoin="round" marker-end="url(#aO)"/>
<path d="M 722.0 380.0 L 730.0 380.0 L 730.0 645.0 L 758.0 645.0" fill="none" stroke="#1c7a4b" stroke-width="2.4" stroke-linecap="round" stroke-linejoin="round" marker-end="url(#aG)"/>
<path d="M 1026.7 176.0 L 1044.7 176.0" fill="none" stroke="#e8791a" stroke-width="2.4" stroke-linecap="round" stroke-linejoin="round" marker-end="url(#aO)"/>
<path d="M 1313.3 176.0 L 1331.3 176.0" fill="none" stroke="#e8791a" stroke-width="2.4" stroke-linecap="round" stroke-linejoin="round" marker-end="url(#aO)"/>
<path d="M 1026.7 645.0 L 1044.7 645.0" fill="none" stroke="#1c7a4b" stroke-width="2.4" stroke-linecap="round" stroke-linejoin="round" marker-end="url(#aG)"/>
<path d="M 1313.3 645.0 L 1331.3 645.0" fill="none" stroke="#1c7a4b" stroke-width="2.4" stroke-linecap="round" stroke-linejoin="round" marker-end="url(#aG)"/>
<path d="M 882.0 285.0 L 882.0 249.0" fill="none" stroke="#8fa0b3" stroke-width="1.8" stroke-linecap="round" stroke-linejoin="round" stroke-dasharray="6 5" marker-end="url(#aN)"/>
<rect x="892.0" y="265.0" width="78.9" height="19.0" rx="5" fill="#ffffff"/>
<text x="900.0" y="278.0" font-family="'Segoe UI','Inter',-apple-system,'Helvetica Neue',Arial,sans-serif" font-size="11.5" fill="#61707e" font-weight="400" text-anchor="start">Fast Model</text>
<path d="M 1168.7 285.0 L 1168.7 249.0" fill="none" stroke="#8fa0b3" stroke-width="1.8" stroke-linecap="round" stroke-linejoin="round" stroke-dasharray="6 5" marker-end="url(#aN)"/>
<rect x="1178.7" y="265.0" width="84.9" height="19.0" rx="5" fill="#ffffff"/>
<text x="1186.7" y="278.0" font-family="'Segoe UI','Inter',-apple-system,'Helvetica Neue',Arial,sans-serif" font-size="11.5" fill="#61707e" font-weight="400" text-anchor="start">Cited Facts</text>
<path d="M 882.0 463.0 L 882.0 489.0" fill="none" stroke="#8fa0b3" stroke-width="1.8" stroke-linecap="round" stroke-linejoin="round" stroke-dasharray="6 5" marker-end="url(#aN)"/>
<rect x="892.0" y="469.0" width="78.9" height="19.0" rx="5" fill="#ffffff"/>
<text x="900.0" y="482.0" font-family="'Segoe UI','Inter',-apple-system,'Helvetica Neue',Arial,sans-serif" font-size="11.5" fill="#61707e" font-weight="400" text-anchor="start">Deep Model</text>
<path d="M 1168.7 463.0 L 1168.7 489.0" fill="none" stroke="#8fa0b3" stroke-width="1.8" stroke-linecap="round" stroke-linejoin="round" stroke-dasharray="6 5" marker-end="url(#aN)"/>
<rect x="1178.7" y="469.0" width="103.1" height="19.0" rx="5" fill="#ffffff"/>
<text x="1186.7" y="482.0" font-family="'Segoe UI','Inter',-apple-system,'Helvetica Neue',Arial,sans-serif" font-size="11.5" fill="#61707e" font-weight="400" text-anchor="start">Policy Context</text>
<path d="M 506.0 542.0 L 506.0 738.0 L 782.0 738.0 L 782.0 748.0" fill="none" stroke="#8fa0b3" stroke-width="1.8" stroke-linecap="round" stroke-linejoin="round" stroke-dasharray="6 5" marker-end="url(#aN)"/>
<rect x="516.0" y="681.0" width="134.5" height="19.0" rx="5" fill="#ffffff"/>
<text x="524.0" y="694.0" font-family="'Segoe UI','Inter',-apple-system,'Helvetica Neue',Arial,sans-serif" font-size="11.5" fill="#61707e" font-weight="400" text-anchor="start">Audio + Text Stored</text>
<rect x="332.0" y="555.0" width="209.5" height="19.0" rx="5" fill="#ffffff"/>
<text x="340.0" y="568.0" font-family="'Segoe UI','Inter',-apple-system,'Helvetica Neue',Arial,sans-serif" font-size="11.5" fill="#61707e" font-weight="400" text-anchor="start">Already Text, No Speech-to-Text</text>
<path d="M 1168.7 728.0 L 1168.7 748.0" fill="none" stroke="#8fa0b3" stroke-width="1.8" stroke-linecap="round" stroke-linejoin="round" stroke-dasharray="6 5" marker-end="url(#aN)"/>
<text x="1756.0" y="46.0" font-family="'Segoe UI','Inter',-apple-system,'Helvetica Neue',Arial,sans-serif" font-size="11" fill="#61707e" font-weight="600" text-anchor="middle" letter-spacing="0.12em">WHO SEES IT</text>
<rect x="1656.0" y="79.5" width="200.0" height="164.0" rx="12" fill="#ffffff" stroke="#d92b2b" stroke-width="1.6" filter="url(#sh)"/>
<rect x="1735.0" y="95.5" width="42.0" height="42.0" rx="10" fill="#d92b2b" filter="url(#ic)"/>
<g transform="translate(1740.0,100.5) scale(1.333)" fill="#ffffff" stroke="#ffffff" stroke-linejoin="round" stroke-linecap="round" color="#d92b2b"><path d="M12 3.2a6 6 0 0 0-6 6v3.9l-2 3.1h16l-2-3.1V9.2a6 6 0 0 0-6-6z" fill="none" stroke-width="2" stroke-linejoin="round"/><path d="M9.8 19.2a2.2 2.2 0 0 0 4.4 0" fill="none" stroke-width="2"/></g>
<text x="1756.0" y="157.5" font-family="'Segoe UI','Inter',-apple-system,'Helvetica Neue',Arial,sans-serif" font-size="15" fill="#d92b2b" font-weight="600" text-anchor="middle" letter-spacing="0.03em">SUPERVISOR</text>
<text x="1756.0" y="177.5" font-family="'Segoe UI','Inter',-apple-system,'Helvetica Neue',Arial,sans-serif" font-size="12" fill="#33414f" font-weight="400" text-anchor="middle">Alert on the Dashboard</text>
<text x="1756.0" y="194.5" font-family="'Segoe UI','Inter',-apple-system,'Helvetica Neue',Arial,sans-serif" font-size="12" fill="#33414f" font-weight="400" text-anchor="middle">and a Notification —</text>
<text x="1756.0" y="211.5" font-family="'Segoe UI','Inter',-apple-system,'Helvetica Neue',Arial,sans-serif" font-size="12" fill="#33414f" font-weight="400" text-anchor="middle">Listen In, or Step In</text>
<rect x="1709.0" y="69.5" width="93.9" height="20.0" rx="10" fill="#d92b2b"/>
<text x="1756.0" y="83.5" font-family="'Segoe UI','Inter',-apple-system,'Helvetica Neue',Arial,sans-serif" font-size="10.5" fill="#ffffff" font-weight="600" text-anchor="middle" letter-spacing="0.06em">ESCALATION</text>
<rect x="1656.0" y="555.5" width="200.0" height="150.0" rx="12" fill="#ffffff" stroke="#1c7a4b" stroke-width="1.6" filter="url(#sh)"/>
<rect x="1735.0" y="571.5" width="42.0" height="42.0" rx="10" fill="#1c7a4b" filter="url(#ic)"/>
<g transform="translate(1740.0,576.5) scale(1.333)" fill="#ffffff" stroke="#ffffff" stroke-linejoin="round" stroke-linecap="round" color="#1c7a4b"><rect x="3.5" y="4" width="17" height="16" rx="2" fill="none" stroke-width="2"/><path d="M7.5 15.5v-3M12 15.5v-6.5M16.5 15.5v-4.5" stroke-width="2" stroke-linecap="round"/></g>
<text x="1756.0" y="633.5" font-family="'Segoe UI','Inter',-apple-system,'Helvetica Neue',Arial,sans-serif" font-size="15" fill="#1c7a4b" font-weight="600" text-anchor="middle" letter-spacing="0.03em">LEADERSHIP</text>
<text x="1756.0" y="653.5" font-family="'Segoe UI','Inter',-apple-system,'Helvetica Neue',Arial,sans-serif" font-size="12" fill="#33414f" font-weight="400" text-anchor="middle">Dashboards and</text>
<text x="1756.0" y="670.5" font-family="'Segoe UI','Inter',-apple-system,'Helvetica Neue',Arial,sans-serif" font-size="12" fill="#33414f" font-weight="400" text-anchor="middle">Scorecards — Trends,</text>
<text x="1756.0" y="687.5" font-family="'Segoe UI','Inter',-apple-system,'Helvetica Neue',Arial,sans-serif" font-size="12" fill="#33414f" font-weight="400" text-anchor="middle">Topics, Agent Quality</text>
<path d="M 1600.0 161.5 L 1650.0 161.5" fill="none" stroke="#d92b2b" stroke-width="2.4" stroke-linecap="round" stroke-linejoin="round" marker-end="url(#aR)"/>
<path d="M 1600.0 630.5 L 1650.0 630.5" fill="none" stroke="#1c7a4b" stroke-width="2.2" stroke-linecap="round" stroke-linejoin="round" marker-end="url(#aG)"/>
<rect x="1557.5" y="129.5" width="140.9" height="19.0" rx="5" fill="#ffffff"/>
<text x="1565.5" y="142.5" font-family="'Segoe UI','Inter',-apple-system,'Helvetica Neue',Arial,sans-serif" font-size="11" fill="#d92b2b" font-weight="400" text-anchor="start">Risk Crosses the Line</text>
</svg>
